<svg xmlns="http://www.w3.org/2000/svg" viewBox="0 0 53.99 31.56">
  <path fill="#111111" d="M42.85,5.37c.06-.39.29-.7.39-1.12.21-1.01-.04-2.7-1.36-2.68-1.82.02-2.54,3.66-2.79,5.02-.52,2.85-.78,5.82-1.14,8.69.31-.02,1.8-.23,1.92-.47.23-2.07.72-4.42,2.64-5.58.78-.47,1.73-.72,2.58-.29,1.57.78.93,3.33-.58,3.74,0-.83.76-1.63.23-2.44-.43-.64-1.24-.33-1.65.17-.89,1.11-1.51,4.38-1.42,5.8.23,3.84,4.21,1.73,4.89-.62l.66-5.58c-.02-.16-.66-.06-.81-.08.04-.27-.12-.83.16-.99.21-.12.72-.02.83-.23.35-1.57.35-3.74,1.11-5.16.21-.39.81-1.09,1.26-.68l-.66,5.58.16.04,4.67-.72c.25.17-.39.99-.6,1.12-.43.29-1.22.35-1.74.45-.41.06-2.44.27-2.62.39-.06.04-.1.12-.12.19-.17.74-.08,1.71-.25,2.46.04,1.28-.58,4.13.35,5.12.58.62,1.96.45,2.46-.23.14-.17.31-.72.5-.66.41.1-.19,1.28-.33,1.49-1.32,2.06-4.23,1.76-4.92-.6-.37.45-.66.95-1.09,1.34-1.07.95-2.85,1.49-4.19.81s-1.61-2.35-1.61-3.74l-1.88.68c-.08.04-.1.1-.12.17-.16.79-.19,1.76-.31,2.6-.66,4.52-1.59,11.03-7.02,12.06-1.9.37-4.5.12-5.45-1.82-1.26-2.58,1.11-5.89,3.97-5.45,2.19.35,2,2.75.56,3.88-.08,0-.16-.06-.16-.16s.29-.68.33-.91c.31-2.04-2.6-2.48-3.3-.23-.68,2.19.93,3.78,3.1,3.47,3.55-.52,4.71-4.75,5.33-7.72.35-1.69.56-3.39.74-5.12,0-.04,0-.1-.06-.12-.17-.12-2.09.41-2.44.39-.5-.08-.41-1.36.14-1.57s1.69-.21,2.33-.33c.08,0,.17-.02.21-.1.45-2.93.6-5.91,1.14-8.82.43-2.29,1.11-5,3.26-6.24,4.01-2.31,6.82,3.06,2.68,4.83h0l.02-.04h0Z"/>
  <path fill="#111111" d="M4.19,5.99c-.08-.06-.14-.08-.23-.06-.45.06-1.49.78-1.9,1.07-.31.23-1.45,1.22-1.69,1.28-.47.12-.43-.62-.21-.93.58-.85,2.37-2.25,3.28-2.81,3.08-1.88,9.31-3.12,10.55,1.49,1.11,4.05-2.37,7.14-5.72,8.55-.7.29-1.69.52-2.31.83-.16.08-.27.17-.29.35-.12.83-.14,1.78-.25,2.66-.14,1.11-.27,3.04-.58,4.03-.17.54-.64.64-1.12.76-.17.04-.85.21-.97.19-.45-.02.04-.83.12-1.07.35-1.2.45-2.5.58-3.74.35-3.65.74-7.58.89-11.23,0-.29.08-1.2-.14-1.38h-.01ZM5.85,13.99c3.3-.5,6.94-3.37,6.3-7.04-.39-2.17-2.38-3.04-4.42-2.7-.37.06-.58.1-.85.39-.54.6-.43,2.33-.5,3.16-.17,2.06-.43,4.11-.52,6.17h0v.02h0Z"/>
  <path fill="#111111" d="M30.2,13.41l.87-1.8c.6-.99,1.9-2.62,3.22-1.9.93.52.83,1.96.48,2.83-.48,1.2-.58-.21-.87-.6-.23-.33-.52-.43-.91-.29-.74.25-1.82,2.7-2.09,3.45-.66,1.74-.89,3.51-1.22,5.33-.23.41-1.51.48-1.88.37-.19-.06-.29-.23-.29-.41,0-.74.25-1.78.35-2.56.25-2.09.7-4.73.6-6.79,0-.17-.14-.64-.12-.76.1-.39,2.06-.62,2.17.29.12.87-.25,1.98-.29,2.87h0l-.02-.04h0Z"/>
  <path fill="#111111" d="M13.43,21.85c-.1-.1-.08-.41-.08-.54.14-2.71.85-5.6,1.01-8.34-.06-.17-.02-.41-.06-.58-.1-.48-.54-.68.16-.97.43-.17,1.32-.21,1.65.17.25.29,0,1.98-.04,2.44,0,.06-.04.23.06.21.37-1.18,1.78-3.61,3.26-3.35.58.1.7.45.76.97.02.23-.02,1.14-.08,1.32-.16.48-.39.04-.56-.1-1.03-.68-1.88.97-2.31,1.71-1.22,2.13-1.59,4.4-1.94,6.81-.25.45-1.49.58-1.8.25h-.03Z"/>
  <path fill="#111111" d="M23.17,12.99l.81-1.34c.54-.78,1.38-1.67,2.42-1.4.16.04.48.23.56.39s.08,1.69,0,1.88c-.16.45-.58-.12-.83-.17-.79-.17-1.16.39-1.57.93-1.12,1.55-1.82,3.72-2.15,5.58-.1.56-.1,1.2-.19,1.74-.04.23-.08.41-.29.54-.33.19-1.65.37-1.65-.17.17-1.18.37-2.37.52-3.55.21-1.57.7-3.99.6-5.49-.04-.72-.45-1.36.68-1.45,1.67-.14,1.18,1.4,1.11,2.48h0l-.02.02h0Z"/>
</svg>