<svg xmlns="http://www.w3.org/2000/svg" viewBox="0 0 281.25 165.82">
  <g id="Layer_2-2">
    <g id="uuid-60a9e092-be3c-4a81-becc-254928e460d6">
      <g id="Layer_1-2">
        <path fill="#111111" d="M222.42,29.35c.29-2.04,1.55-3.6,2-5.77,1.08-5.18-.17-13.85-7.02-13.75-9.36.14-13.09,18.85-14.38,25.87-2.71,14.73-4,29.98-5.88,44.85,1.61-.1,9.34-1.23,9.91-2.43,1.15-10.71,3.72-22.78,13.58-28.77,4.02-2.44,8.91-3.72,13.35-1.51,8.08,4,4.81,17.15-3.01,19.31.05-4.29,3.92-8.36,1.17-12.6-2.16-3.32-6.38-1.72-8.47.87-4.62,5.72-7.76,22.57-7.32,29.85,1.19,19.85,21.67,8.89,25.15-3.18l3.41-28.83c-.15-.83-3.4-.3-4.19-.44.19-1.38-.58-4.32.82-5.12,1.11-.63,3.66-.11,4.31-1.17,1.84-8.06,1.77-19.32,5.67-26.63,1.05-1.97,4.19-5.6,6.46-3.51l-3.41,28.83.78.17,24.09-3.71c1.34.93-2.05,5.07-3.08,5.79-2.21,1.55-6.31,1.81-9.02,2.25-2.1.34-12.62,1.39-13.49,2.05-.32.24-.47.58-.56.97-.92,3.76-.36,8.85-1.28,12.73.15,6.64-3.01,21.27,1.83,26.42,3.04,3.25,10.1,2.27,12.74-1.19.67-.86,1.56-3.68,2.61-3.42,2.08.53-1,6.59-1.69,7.68-6.76,10.57-21.77,9.07-25.38-3.14-1.86,2.34-3.37,4.85-5.64,6.86-5.51,4.9-14.72,7.72-21.6,4.22s-8.25-12.11-8.27-19.31l-9.74,3.52c-.39.2-.54.49-.61.91-.79,4.13-.96,9.09-1.57,13.36-3.37,23.31-8.24,56.87-36.21,62.21-9.76,1.86-23.19.59-28.1-9.4-6.54-13.32,5.75-30.4,20.48-28.1,11.27,1.75,10.33,14.25,2.88,19.99-.44.03-.76-.33-.77-.76,0-.49,1.5-3.48,1.69-4.72,1.62-10.51-13.4-12.75-17.01-1.17-3.52,11.31,4.8,19.52,16.04,17.87,18.35-2.69,24.27-24.46,27.53-39.82,1.84-8.7,2.93-17.54,3.77-26.41-.03-.24-.09-.5-.3-.64-.87-.62-10.77,2.08-12.65,2.01-2.58-.4-2.09-7,.74-8.09,2.84-1.09,8.69-1.14,12.02-1.7.39-.07.89-.1,1.08-.5,2.27-15.11,3.14-30.46,5.94-45.49,2.19-11.78,5.67-25.79,16.83-32.23,20.65-11.93,35.24,15.77,13.81,24.92v.03h0l-.04-.03Z"/>
        <path fill="#111111" d="M23.04,32.5c-.36-.3-.74-.38-1.2-.33-2.35.26-7.68,4-9.77,5.47-1.62,1.15-7.48,6.29-8.67,6.59-2.43.61-2.2-3.19-1.12-4.8,2.96-4.43,12.25-11.62,16.92-14.47,15.89-9.71,47.98-16.13,54.43,7.68,5.65,20.87-12.21,36.78-29.48,44.09-3.6,1.53-8.73,2.68-11.88,4.27-.85.43-1.36.85-1.5,1.84-.65,4.32-.73,9.22-1.27,13.66-.69,5.69-1.36,15.68-2.99,20.77-.89,2.76-3.25,3.26-5.81,3.95-.89.24-4.39,1.08-5.05,1.04-2.25-.12.21-4.33.56-5.53,1.84-6.2,2.35-12.86,2.96-19.29,1.77-18.79,3.79-39.12,4.57-57.9.06-1.52.36-6.18-.69-7.06h0v.02ZM31.67,73.84c16.99-2.59,35.81-17.4,32.51-36.32-1.96-11.22-12.26-15.7-22.82-13.88-1.94.33-3.01.53-4.36,2.05-2.77,3.12-2.22,12-2.59,16.3-.91,10.61-2.16,21.22-2.74,31.85h0Z"/>
        <path fill="#111111" d="M157.21,70.8l4.52-9.34c3.08-5.14,9.82-13.53,16.6-9.79,4.83,2.66,4.25,10.13,2.49,14.56-2.46,6.18-3.04-1.06-4.47-3.14-1.19-1.74-2.69-2.17-4.74-1.49-3.8,1.26-9.38,13.95-10.83,17.82-3.37,8.99-4.65,18.07-6.35,27.48-1.18,2.08-7.76,2.48-9.74,1.88-.97-.29-1.54-1.15-1.52-2.13.05-3.83,1.34-9.16,1.8-13.16,1.26-10.75,3.58-24.43,3.1-35.02-.04-.93-.72-3.3-.58-3.89.48-2,10.62-3.22,11.24,1.45.61,4.54-1.32,10.19-1.54,14.79h0l.02-.02Z"/>
        <path fill="#111111" d="M70.75,114.29c-.51-.54-.42-2.07-.38-2.82.67-14.02,4.43-28.86,5.15-43-.34-.95-.11-2.14-.29-3-.53-2.54-2.82-3.52.85-4.98,2.18-.86,6.81-1.08,8.46.85,1.28,1.5,0,10.25-.15,12.62-.02.33-.2,1.15.32,1.08,1.91-6.15,9.22-18.57,16.84-17.3,3.01.5,3.62,2.29,3.86,5.01.1,1.17-.13,5.87-.42,6.82-.77,2.53-1.98.19-2.93-.45-5.27-3.54-9.73,4.97-11.91,8.76-6.33,10.98-8.16,22.69-10.04,35.06-1.26,2.27-7.75,3.01-9.33,1.33h0l-.03.02Z"/>
        <path fill="#111111" d="M120.95,68.67l4.19-6.92c2.82-3.95,7.05-8.6,12.5-7.19.84.21,2.54,1.21,2.87,2,.37.85.41,8.73.09,9.69-.76,2.31-2.96-.57-4.35-.86-4.11-.85-6.04,1.96-8.12,4.84-5.79,7.99-9.38,19.16-11.07,28.84-.51,2.95-.53,6.16-1.03,9.03-.2,1.17-.42,2.1-1.51,2.75-1.73,1.03-8.46,1.95-8.52-.87.89-6.12,1.9-12.22,2.72-18.35,1.08-8.07,3.58-20.6,3.1-28.31-.23-3.73-2.31-7.01,3.48-7.46,8.63-.67,6.06,7.2,5.65,12.81h0Z"/>
      </g>
    </g>
  </g>
</svg>